<svg width="34" height="34" viewBox="0 0 34 34" fill="none" xmlns="http://www.w3.org/2000/svg">
<circle cx="17" cy="17" r="17" fill="black"/>
<g clip-path="url(#clip0_159_157)">
<path d="M17.1452 8C17.7258 8.14516 18.1613 8.43548 18.3065 9.01613C18.3065 9.16129 18.3065 9.30645 18.3065 9.59677C18.3065 15.9839 18.3065 14.9677 18.3065 21.3548C18.3065 21.5 18.3065 21.5 18.3065 21.6452C18.4516 21.5 18.4516 21.5 18.5968 21.3548C20.3387 19.6129 21.9355 17.871 23.6774 16.2742C23.9677 15.9839 24.4032 15.6935 24.9839 15.8387C25.8548 15.9839 26.2903 17.1452 25.7097 17.871C25.5645 18.0161 25.5645 18.0161 25.4194 18.1613C22.9516 20.629 20.4839 23.0968 18.0161 25.5645C17.2903 26.2903 16.5645 26.2903 15.8387 25.5645C13.5161 22.9516 10.9032 20.4839 8.43548 18.0161C7.85484 17.4355 7.85484 16.5645 8.43548 15.9839C8.87097 15.5484 9.59677 15.5484 10.0323 15.9839C10.1774 16.129 10.1774 16.129 10.3226 16.2742C12.0645 18.0161 13.8065 19.6129 15.4032 21.3548C15.4032 21.3548 15.5484 21.5 15.5484 21.6452C15.5484 21.6452 15.5484 21.6452 15.6935 21.6452C15.6935 21.5 15.6935 21.5 15.6935 21.3548C15.6935 14.9677 15.6935 15.8387 15.6935 9.59677C15.6935 9.01613 15.8387 8.58065 16.4194 8.29032C16.5645 8.14516 16.7097 8 16.8548 8C17 8 17.1452 8 17.1452 8Z" fill="white"/>
</g>
<defs>
<clipPath id="clip0_159_157">
<rect width="18" height="18" fill="white" transform="translate(8 8)"/>
</clipPath>
</defs>
</svg>
