<svg width="50" height="45" viewBox="0 0 50 45" fill="none" xmlns="http://www.w3.org/2000/svg">
<g clip-path="url(#clip0_114_13)">
<path d="M50 44.9999L49.0839 43.8361C46.4984 40.5285 41.1441 40.4468 39.3119 40.5081L35.2402 25.0521L38.7215 15.4763C40.3298 16.5993 42.5489 16.4359 43.9943 15.0067L44.035 14.9659C45.2972 13.7 45.5822 11.7399 44.8086 10.1678C45.399 9.14691 45.7044 7.98312 45.7044 6.77849C45.7044 3.02169 42.671 -0.0205078 38.9251 -0.0205078C35.1995 -9.03904e-05 32.1661 3.04211 32.1661 6.79891C32.1661 8.00354 32.4919 9.20817 33.1026 10.2495C27.4023 12.1483 13.294 18.1918 13.294 31.6673C13.294 38.1397 17.1824 41.774 19.9511 43.5503H18.9943C14.3119 43.5503 9.9145 41.7127 6.59609 38.4051C3.25733 35.0975 1.44544 30.6669 1.44544 25.9709C1.44544 23.827 1.83225 21.7445 2.54479 19.8048C2.70765 20.744 3.09446 21.6015 3.76629 22.2549C4.62134 23.1124 5.80212 23.5616 7.16612 23.5616C9.1816 23.5616 11.421 22.5407 13.1515 20.8053C16.1238 17.8447 16.7752 13.6183 14.5765 11.4337C13.7215 10.5761 12.5407 10.127 11.1767 10.127C9.28339 10.127 7.2272 11.0253 5.55782 12.5362C5.53746 12.5566 5.5171 12.577 5.5171 12.5975C5.41531 12.6995 5.31352 12.7812 5.21173 12.8833C4.82492 13.2712 4.47883 13.6796 4.17345 14.1083C1.4658 17.4568 0 21.6015 0 25.9709C0 31.0548 1.97476 35.8325 5.55782 39.426C9.14088 43.0194 13.9047 44.9999 18.9739 44.9999H22.9031H24.206H36.7671C36.8078 44.9999 36.8485 44.9999 36.8893 44.9795V44.9999H50ZM12.1335 19.8048C10.6678 21.2749 8.81515 22.1324 7.16612 22.1324C6.31108 22.1324 5.57818 21.8874 5.00814 21.4382C5.15065 19.1515 6.75896 18.4777 9.34446 17.6201C11.3192 16.9464 13.5179 16.2113 14.3933 14.1083C14.6987 15.8234 13.8844 18.0489 12.1335 19.8048ZM13.3347 12.2504C13.1922 14.8025 11.1971 15.4763 8.89658 16.2522C6.96254 16.9055 4.84528 17.6201 3.96987 19.6211C3.70521 18.2327 4.19381 16.4972 5.33388 14.9455C5.70033 14.4759 6.10749 14.0267 6.53502 13.5979C7.93974 12.3116 9.6702 11.5358 11.1971 11.5358C12.0318 11.5562 12.785 11.8012 13.3347 12.2504ZM43.4039 9.77985L43.1392 10.1882L43.4039 10.5966C44.0961 11.6583 43.9536 13.0875 43.0578 13.9858L43.0171 14.0267C41.9992 15.0475 40.3298 15.068 39.2915 14.0879L41.0016 9.39192C41.307 8.53439 42.1417 7.94229 43.0578 7.94229H44.1775C44.035 8.57523 43.7704 9.20817 43.4039 9.77985ZM24.2264 43.5707H23.5546C23.3917 41.9781 23.2288 37.4455 25.9772 33.8112C26.2215 33.4845 26.1604 33.0353 25.8347 32.7903C25.509 32.5453 25.0611 32.6065 24.8168 32.9332C22.0073 36.6288 21.9055 41.0185 22.048 43.1419C19.7679 42.019 14.7191 38.7726 14.7191 31.6877C14.7191 18.3756 29.8249 12.7608 34.4463 11.352L35.4642 11.0457L34.7923 10.2086C34.0187 9.249 33.5912 8.06479 33.5912 6.81933C33.5912 3.8588 35.9935 1.44955 38.9454 1.44955C41.7752 1.44955 44.1165 3.67505 44.2793 6.49265H43.0375C41.5106 6.49265 40.1466 7.45227 39.6173 8.90191L33.7541 25.0113L38.2329 42.0802L38.8436 42.019C38.9047 42.019 43.6889 41.5698 46.6816 43.5911H37.8054L29.1938 25.9709V17.8447C29.1938 17.4364 28.8681 17.1301 28.4813 17.1301C28.0741 17.1301 27.7687 17.4568 27.7687 17.8447V26.2976L28.1759 27.1551C27.2191 26.6651 26.1604 26.3996 25.0204 26.3996C21.193 26.3996 18.0578 29.5235 18.0578 33.3824C18.0578 33.7907 18.3836 34.097 18.7704 34.097C19.1775 34.097 19.4829 33.7703 19.4829 33.3824C19.4829 30.3402 21.9666 27.8493 25 27.8493C28.0537 27.8493 30.5171 30.3402 30.5171 33.3824C30.5171 37.6496 26.4047 40.651 26.364 40.6918C26.3436 40.6918 26.3436 40.7122 26.3233 40.7122C26.3029 40.7327 26.2826 40.7531 26.2622 40.7531C26.2419 40.7735 26.2215 40.7939 26.2215 40.8143C26.2011 40.8348 26.2011 40.8552 26.1808 40.8756C26.1604 40.896 26.1604 40.9164 26.1401 40.9368C26.1197 40.9573 26.1197 40.9777 26.1197 40.9981C26.1197 41.0185 26.0993 41.0389 26.0993 41.0593C26.0993 41.0798 26.079 41.1002 26.079 41.1206C26.079 41.141 26.079 41.1614 26.0586 41.2023C26.0586 41.2227 26.0586 41.2431 26.0586 41.2635C26.0586 41.2839 26.0586 41.3248 26.0586 41.3452C26.0586 41.3656 26.0586 41.3656 26.0586 41.386V41.4064C26.0586 41.4269 26.079 41.4677 26.079 41.4881C26.079 41.5085 26.0993 41.5289 26.0993 41.5494C26.0993 41.5698 26.1197 41.5902 26.1401 41.6106C26.1604 41.631 26.1604 41.6515 26.1808 41.6719C26.1808 41.6719 26.1808 41.6923 26.2011 41.6923L26.2215 41.7127C26.2419 41.7331 26.2622 41.774 26.3029 41.7944C26.3233 41.8148 26.3233 41.8148 26.3436 41.8352C26.364 41.8556 26.4047 41.876 26.4251 41.8965C26.4454 41.8965 26.4454 41.9169 26.4658 41.9169C26.5065 41.9373 26.5676 41.9577 26.6083 41.9781H26.6287C26.6694 41.9781 26.7101 41.9985 26.7508 41.9985H26.7712C26.8119 41.9985 26.8526 41.9985 26.873 41.9985C26.934 41.9985 31.8404 41.2635 34.9959 43.6115H24.2264V43.5707ZM28.8274 40.3856C30.0081 39.1401 31.4536 37.18 31.8607 34.6687L35.5049 42.1211C33.3265 40.6918 30.6596 40.3856 28.8274 40.3856Z" fill="white"/>
</g>
<defs>
<clipPath id="clip0_114_13">
<rect width="50" height="45" fill="white"/>
</clipPath>
</defs>
</svg>
