<?xml version="1.0" encoding="utf-8"?>
<!-- Generator: Adobe Illustrator 27.4.0, SVG Export Plug-In . SVG Version: 6.00 Build 0)  -->
<svg version="1.1" id="Layer_1" xmlns="http://www.w3.org/2000/svg" xmlns:xlink="http://www.w3.org/1999/xlink" x="0px" y="0px"
	 viewBox="0 0 384 288.21" style="enable-background:new 0 0 384 288.21;" xml:space="preserve">
<style type="text/css">
	.st0{fill:#FFFFFF;}
</style>
<g>
	<path class="st0" d="M0,19.53c0.49-1.24,1.02-2.48,1.48-3.73c3.41-9.3,12.1-15.59,22.1-15.73c8.87-0.12,17.75-0.03,26.62-0.03
		c101.5,0,202.99,0,304.49,0c17.41,0,23.16,3.97,29.3,20.25c0,2.5,0,5,0,7.5c-0.85,2.33-1.47,4.78-2.6,6.96
		c-4.35,8.33-11.34,12.71-20.72,13.26c-1.49,0.09-3,0.03-4.5,0.03c-108.62,0-217.23-0.14-325.84,0.17
		C15.25,48.24,4.69,43.46,0,28.53C0,25.53,0,22.53,0,19.53z"/>
	<path class="st0" d="M384,147.79c-0.85,2.33-1.47,4.78-2.6,6.96c-4.35,8.33-11.34,12.71-20.72,13.26c-1.49,0.09-3,0.03-4.5,0.03
		c-108.62,0-217.23-0.14-325.84,0.17C15.25,168.25,4.69,163.47,0,148.54c0-3,0-6,0-9c0.5-1.24,1.02-2.48,1.48-3.73
		c3.38-9.19,11.95-15.42,21.72-15.74c1.5-0.05,3-0.02,4.5-0.02c109,0,217.99,0,326.99,0c17.4,0,23.16,3.98,29.31,20.25
		C384,142.79,384,145.29,384,147.79z"/>
	<path class="st0" d="M384,267.8c-0.85,2.33-1.47,4.78-2.6,6.96c-4.35,8.33-11.34,12.71-20.72,13.26c-1.49,0.09-3,0.03-4.5,0.03
		c-108.62,0-217.23-0.14-325.84,0.17C15.25,288.25,4.69,283.48,0,268.55c0-3,0-6,0-9c0.53-1.36,1.07-2.72,1.59-4.09
		c3.43-8.95,12.02-15.07,21.61-15.38c1.5-0.05,3-0.02,4.5-0.02c109,0,217.99,0,326.99,0c17.4,0,23.16,3.98,29.31,20.25
		C384,262.8,384,265.3,384,267.8z"/>
</g>
</svg>
